<svg xmlns="http://www.w3.org/2000/svg" version="1.1" xmlns:xlink="http://www.w3.org/1999/xlink" width="512" height="512" x="0" y="0" viewBox="0 0 682.667 682.667" style="enable-background:new 0 0 512 512" xml:space="preserve" class=""><g><defs stroke-width="10" style="stroke-width: 10;"><clipPath id="a" clipPathUnits="userSpaceOnUse" stroke-width="10" style="stroke-width: 10;"><path d="M0 512h512V0H0Z" fill="#48385e" opacity="1" data-original="#000000" stroke-width="10" style="stroke-width: 10;"></path></clipPath></defs><g clip-path="url(#a)" transform="matrix(1.33333 0 0 -1.33333 0 682.667)" stroke-width="10" style="stroke-width: 10;"><path d="M0 0c-13.75-31.359-41.72-75.89-93.38-91.72-28.58-8.759-63.72-8.889-92.12-1.33-9.11 2.43-17.52 5.64-24.81 9.62-14.43 7.87-23.46 17.92-26.83 29.87-3.62 12.85-.85 28.4 8 44.98 6.21 11.65 15.3 23.351 26.37 34.11" style="stroke-width: 10; stroke-linecap: round; stroke-linejoin: round; stroke-miterlimit: 10; stroke-dasharray: none; stroke-opacity: 1;" transform="translate(285.56 217.59)" fill="none" stroke="#48385e" stroke-width="10" stroke-linecap="round" stroke-linejoin="round" stroke-miterlimit="10" stroke-dasharray="none" stroke-opacity="" data-original="#000000" class="" opacity="1"></path><path d="M0 0c9.602 1.344 18.985 3.372 27.9 6.105 40.13 12.3 74.27 40.77 98.72 82.33 5.41 9.2 9.85 18.19 13.44 26.39" style="stroke-width: 10; stroke-linecap: round; stroke-linejoin: round; stroke-miterlimit: 10; stroke-dasharray: none; stroke-opacity: 1;" transform="translate(173.08 91.085)" fill="none" stroke="#48385e" stroke-width="10" stroke-linecap="round" stroke-linejoin="round" stroke-miterlimit="10" stroke-dasharray="none" stroke-opacity="" data-original="#000000" class="" opacity="1"></path><path d="M0 0v-.01C-46.14-36.59-68.89-84.29-58.09-122.6c5.56-19.74 19.85-36.36 41.33-48.08 12.64-6.9 27.68-11.95 43.81-15.06 12.64-2.43 25.97-3.67 39.34-3.67" style="stroke-width: 10; stroke-linecap: round; stroke-linejoin: round; stroke-miterlimit: 10; stroke-dasharray: none; stroke-opacity: 1;" transform="translate(77.64 278.5)" fill="none" stroke="#48385e" stroke-width="10" stroke-linecap="round" stroke-linejoin="round" stroke-miterlimit="10" stroke-dasharray="none" stroke-opacity="" data-original="#000000" class="" opacity="1"></path><path d="M0 0h-12.157c-8.284 0-15-6.716-15-15 0-8.284 6.716-15 15-15h56.324" style="stroke-width: 10; stroke-linecap: round; stroke-linejoin: round; stroke-miterlimit: 10; stroke-dasharray: none; stroke-opacity: 1;" transform="translate(84.26 346.5)" fill="none" stroke="#48385e" stroke-width="10" stroke-linecap="round" stroke-linejoin="round" stroke-miterlimit="10" stroke-dasharray="none" stroke-opacity="" data-original="#000000" class="" opacity="1"></path><path d="m0 0 5.54-38.01 5.15-35.37 17.27-118.58" style="stroke-width: 10; stroke-linecap: round; stroke-linejoin: round; stroke-miterlimit: 10; stroke-dasharray: none; stroke-opacity: 1;" transform="translate(72.1 316.5)" fill="none" stroke="#48385e" stroke-width="10" stroke-linecap="round" stroke-linejoin="round" stroke-miterlimit="10" stroke-dasharray="none" stroke-opacity="" data-original="#000000" class="" opacity="1"></path><path d="m0 0 7.43-51.02c2.86-19.66 19.71-34.24 39.58-34.24h230.81c19.86 0 36.72 14.58 39.58 34.24l40.01 274.76" style="stroke-width: 10; stroke-linecap: round; stroke-linejoin: round; stroke-miterlimit: 10; stroke-dasharray: none; stroke-opacity: 1;" transform="translate(104.69 92.76)" fill="none" stroke="#48385e" stroke-width="10" stroke-linecap="round" stroke-linejoin="round" stroke-miterlimit="10" stroke-dasharray="none" stroke-opacity="" data-original="#000000" class="" opacity="1"></path><path d="M0 0c0-19.259-15.613-34.872-34.872-34.872S-69.744-19.259-69.744 0s15.613 34.872 34.872 34.872S0 19.259 0 0Z" style="stroke-width: 10; stroke-linecap: round; stroke-linejoin: round; stroke-miterlimit: 10; stroke-dasharray: none; stroke-opacity: 1;" transform="translate(346.5 240.746)" fill="none" stroke="#48385e" stroke-width="10" stroke-linecap="round" stroke-linejoin="round" stroke-miterlimit="10" stroke-dasharray="none" stroke-opacity="" data-original="#000000" class="" opacity="1"></path><path d="M0 0v5.699c0 27.683-22.654 50.76-50.333 50.314-14.896-.241-28.188-7.064-37.11-17.681-14.792 21.147-39.311 34.99-67.077 34.99a81.55 81.55 0 0 1-30.035-5.716c-19.286 18.999-45.754 30.727-74.965 30.727-56.141 0-102.168-43.305-106.5-98.333h68.168a6 6 0 0 0 6-6v-105.487c0-18.057 14.638-32.694 32.694-32.694v0c18.056 0 32.694 14.637 32.694 32.694v82.5c0-13.914 11.279-25.194 25.193-25.194 13.915 0 25.194 11.28 25.194 25.194V-6a6 6 0 0 0 6 6H11.824c8.284 0 15-6.716 15-15 0-8.284-6.716-15-15-15h-157.901" style="stroke-width: 10; stroke-linecap: round; stroke-linejoin: round; stroke-miterlimit: 10; stroke-dasharray: none; stroke-opacity: 1;" transform="translate(450.279 346.5)" fill="none" stroke="#48385e" stroke-width="10" stroke-linecap="round" stroke-linejoin="round" stroke-miterlimit="10" stroke-dasharray="none" stroke-opacity="" data-original="#000000" class="" opacity="1"></path><path d="M0 0c0-12.888-10.447-23.335-23.335-23.335-12.887 0-23.334 10.447-23.334 23.335 0 12.888 10.447 23.335 23.334 23.335C-10.447 23.335 0 12.888 0 0Z" style="stroke-width: 10; stroke-linecap: round; stroke-linejoin: round; stroke-miterlimit: 10; stroke-dasharray: none; stroke-opacity: 1;" transform="translate(495.103 481.165)" fill="none" stroke="#48385e" stroke-width="10" stroke-linecap="round" stroke-linejoin="round" stroke-miterlimit="10" stroke-dasharray="none" stroke-opacity="" data-original="#000000" class="" opacity="1"></path><path d="M0 0c0-9.941-8.059-18-18-18S-36-9.941-36 0s8.059 18 18 18S0 9.941 0 0Z" style="stroke-width: 10; stroke-linecap: round; stroke-linejoin: round; stroke-miterlimit: 10; stroke-dasharray: none; stroke-opacity: 1;" transform="translate(340.103 466.5)" fill="none" stroke="#48385e" stroke-width="10" stroke-linecap="round" stroke-linejoin="round" stroke-miterlimit="10" stroke-dasharray="none" stroke-opacity="" data-original="#000000" class="" opacity="1"></path><path d="M0 0a7.5 7.5 0 1 0-15 0A7.5 7.5 0 0 0 0 0" style="fill-opacity: 1; fill-rule: nonzero; stroke: none; stroke-width: 10;" transform="translate(401.36 444.953)" fill="#48385e" data-original="#000000" stroke-width="10" opacity="1"></path></g></g></svg>