<svg xmlns="http://www.w3.org/2000/svg" version="1.1" xmlns:xlink="http://www.w3.org/1999/xlink" width="512" height="512" x="0" y="0" viewBox="0 0 512 512" style="enable-background:new 0 0 512 512" xml:space="preserve" class=""><g transform="matrix(1,0,0,1,0,0)"><path d="M81.714 52.008h12.304M22.306 52.008H10.002M52.01 22.304V10M52.01 81.713v12.304M449.426 267.301h12.304M390.017 267.301h-12.304M419.721 237.596v-12.304M419.721 297.005v12.304" style="stroke-width: 10; stroke-linecap: round; stroke-linejoin: round; stroke-miterlimit: 10;" fill="none" stroke="#48385e" stroke-width="10" stroke-linecap="round" stroke-linejoin="round" stroke-miterlimit="10" data-original="#000000" class="" opacity="1"></path><circle cx="426.207" cy="451.23" r="21.004" style="stroke-width: 10; stroke-linecap: round; stroke-linejoin: round; stroke-miterlimit: 10;" fill="none" stroke="#48385e" stroke-width="10" stroke-linecap="round" stroke-linejoin="round" stroke-miterlimit="10" data-original="#000000" class="" opacity="1"></circle><circle cx="215.866" cy="53.737" r="21.004" style="stroke-width: 10; stroke-linecap: round; stroke-linejoin: round; stroke-miterlimit: 10;" fill="none" stroke="#48385e" stroke-width="10" stroke-linecap="round" stroke-linejoin="round" stroke-miterlimit="10" data-original="#000000" class="" opacity="1"></circle><path d="M10.002 299.986C51.303 388.878 123.123 460.698 212.016 502l103.313-177.686a22.623 22.623 0 0 0-3.561-27.369l-96.712-96.712a22.623 22.623 0 0 0-27.369-3.561L10.002 299.986zM154.366 216.33l141.196 141.197M283.753 265.672l30.791-30.792M378.183 171.241 501.998 47.426l-37.422-37.423-218.152 218.152M50.269 359.278l60.633-33.186M149.866 464.591l39.207-62.331M223.577 288.424l-41.889 41.89M150.66 164.524c-3.292-23.815-24.919-40.879-48.999-38.325-23.689 2.513-41.08 23.09-39.947 46.585a40.717 40.717 0 0 0-9.393 3.561c-19.859 10.484-27.459 35.081-16.976 54.94M243.171 144.437h0M147.462 79.803h0M290.55 463.294c16.511 5.733 35.448-.005 45.762-15.139 9.715-14.255 8.874-32.582-.76-45.753M346.363 203.06h0" style="stroke-width: 10; stroke-linecap: round; stroke-linejoin: round; stroke-miterlimit: 10;" fill="none" stroke="#48385e" stroke-width="10" stroke-linecap="round" stroke-linejoin="round" stroke-miterlimit="10" data-original="#000000" class="" opacity="1"></path></g></svg>