<svg xmlns="http://www.w3.org/2000/svg" version="1.1" xmlns:xlink="http://www.w3.org/1999/xlink" width="512" height="512" x="0" y="0" viewBox="0 0 682.667 682.667" style="enable-background:new 0 0 512 512" xml:space="preserve" class=""><g><defs stroke-width="10" style="stroke-width: 10;"><clipPath id="a" clipPathUnits="userSpaceOnUse" stroke-width="10" style="stroke-width: 10;"><path d="M0 512h512V0H0Z" fill="#000000" opacity="1" data-original="#000000" stroke-width="10" style="stroke-width: 10;"></path></clipPath></defs><g clip-path="url(#a)" transform="matrix(1.33333 0 0 -1.33333 0 682.667)" stroke-width="10" style="stroke-width: 10;"><path d="M0 0v324.478c0 8.841 7.167 16.008 16.009 16.008 8.841 0 16.009-7.167 16.009-16.008v-81.807" style="stroke-width: 10; stroke-linecap: round; stroke-linejoin: round; stroke-miterlimit: 10; stroke-dasharray: none; stroke-opacity: 1;" transform="translate(375.942 164.43)" fill="none" stroke="#000000" stroke-width="10" stroke-linecap="round" stroke-linejoin="round" stroke-miterlimit="10" stroke-dasharray="none" stroke-opacity="" data-original="#000000"></path><path d="M0 0v-205.549" style="stroke-width: 10; stroke-linecap: round; stroke-linejoin: round; stroke-miterlimit: 10; stroke-dasharray: none; stroke-opacity: 1;" transform="translate(407.96 371.669)" fill="none" stroke="#000000" stroke-width="10" stroke-linecap="round" stroke-linejoin="round" stroke-miterlimit="10" stroke-dasharray="none" stroke-opacity="" data-original="#000000"></path><path d="M0 0h-32.018v52.393c0 8.841 7.168 16.008 16.009 16.008C-7.167 68.401 0 61.234 0 52.393Z" style="stroke-width: 10; stroke-linecap: round; stroke-linejoin: round; stroke-miterlimit: 10; stroke-dasharray: none; stroke-opacity: 1;" transform="translate(407.96 436.516)" fill="none" stroke="#000000" stroke-width="10" stroke-linecap="round" stroke-linejoin="round" stroke-miterlimit="10" stroke-dasharray="none" stroke-opacity="" data-original="#000000"></path><path d="M0 0H124.652c-8.064 57.789-68.54 55.997-68.54 55.997s-34.264 1.015-54.65-23.128" style="stroke-width: 10; stroke-linecap: round; stroke-linejoin: round; stroke-miterlimit: 10; stroke-dasharray: none; stroke-opacity: 1;" transform="translate(335.839 110.117)" fill="none" stroke="#000000" stroke-width="10" stroke-linecap="round" stroke-linejoin="round" stroke-miterlimit="10" stroke-dasharray="none" stroke-opacity="" data-original="#000000"></path><path d="M0 0a8.728 8.728 0 0 1 6.413-2.792h143.352c5.084 0 9.099 4.312 8.737 9.382l-1.57 21.985c-3.583 35.848-10.303 71.666-10.303 71.666H21.977" style="stroke-width: 10; stroke-linecap: round; stroke-linejoin: round; stroke-miterlimit: 10; stroke-dasharray: none; stroke-opacity: 1;" transform="translate(313.862 9.876)" fill="none" stroke="#000000" stroke-width="10" stroke-linecap="round" stroke-linejoin="round" stroke-miterlimit="10" stroke-dasharray="none" stroke-opacity="" data-original="#000000"></path><path d="M0 0s7.208-27.626 9.01-63.277" style="stroke-width: 10; stroke-linecap: round; stroke-linejoin: round; stroke-miterlimit: 10; stroke-dasharray: none; stroke-opacity: 1;" transform="translate(424.132 70.36)" fill="none" stroke="#000000" stroke-width="10" stroke-linecap="round" stroke-linejoin="round" stroke-miterlimit="10" stroke-dasharray="none" stroke-opacity="" data-original="#000000"></path><path d="M0 0s-7.208-27.626-9.01-63.277" style="stroke-width: 10; stroke-linecap: round; stroke-linejoin: round; stroke-miterlimit: 10; stroke-dasharray: none; stroke-opacity: 1;" transform="translate(359.77 70.36)" fill="none" stroke="#000000" stroke-width="10" stroke-linecap="round" stroke-linejoin="round" stroke-miterlimit="10" stroke-dasharray="none" stroke-opacity="" data-original="#000000"></path><path d="M0 0v-63.277" style="stroke-width: 10; stroke-linecap: round; stroke-linejoin: round; stroke-miterlimit: 10; stroke-dasharray: none; stroke-opacity: 1;" transform="translate(391.95 70.36)" fill="none" stroke="#000000" stroke-width="10" stroke-linecap="round" stroke-linejoin="round" stroke-miterlimit="10" stroke-dasharray="none" stroke-opacity="" data-original="#000000"></path><path d="m0 0 3.602-67.489c.865-16.217 14.267-28.922 30.506-28.922H165.85c16.239 0 29.641 12.705 30.506 28.922l9.686 181.493" style="stroke-width: 10; stroke-linecap: round; stroke-linejoin: round; stroke-miterlimit: 10; stroke-dasharray: none; stroke-opacity: 1;" transform="translate(135.24 103.494)" fill="none" stroke="#000000" stroke-width="10" stroke-linecap="round" stroke-linejoin="round" stroke-miterlimit="10" stroke-dasharray="none" stroke-opacity="" data-original="#000000"></path><path d="m0 0 3.936-73.754" style="stroke-width: 10; stroke-linecap: round; stroke-linejoin: round; stroke-miterlimit: 10; stroke-dasharray: none; stroke-opacity: 1;" transform="translate(129.157 217.498)" fill="none" stroke="#000000" stroke-width="10" stroke-linecap="round" stroke-linejoin="round" stroke-miterlimit="10" stroke-dasharray="none" stroke-opacity="" data-original="#000000"></path><path d="M0 0c5.729 3.834 9.5 10.364 9.5 17.775 0 11.805-9.569 21.374-21.374 21.374a21.28 21.28 0 0 1-13.206-4.574c-4.036 10.615-14.3 18.162-26.332 18.162a28.037 28.037 0 0 1-17.632-6.209c.01.355.027.708.027 1.066 0 21.418-17.363 38.781-38.782 38.781-21.418 0-38.782-17.363-38.782-38.781 0-.358.018-.711.027-1.066a28.035 28.035 0 0 1-17.632 6.209c-15.557 0-28.168-12.611-28.168-28.168 0-10.188 5.41-19.622 13.513-24.569z" style="stroke-width: 10; stroke-linecap: round; stroke-linejoin: round; stroke-miterlimit: 10; stroke-dasharray: none; stroke-opacity: 1;" transform="translate(326.646 253.456)" fill="none" stroke="#000000" stroke-width="10" stroke-linecap="round" stroke-linejoin="round" stroke-miterlimit="10" stroke-dasharray="none" stroke-opacity="" data-original="#000000"></path><path d="M0 0a33.642 33.642 0 0 1 13.321-2.73c14.194 0 26.338 8.762 31.326 21.171 2.534 6.305 8.702 10.389 15.496 10.389h62.459a7.635 7.635 0 0 1 7.636 7.635v20.686a7.637 7.637 0 0 1-7.636 7.637H-95.96a7.637 7.637 0 0 1-7.637-7.636V36.465a7.636 7.636 0 0 1 7.637-7.635h62.459c4.366 0 8.473-1.687 11.523-4.565" style="stroke-width: 10; stroke-linecap: round; stroke-linejoin: round; stroke-miterlimit: 10; stroke-dasharray: none; stroke-opacity: 1;" transform="translate(221.898 188.668)" fill="none" stroke="#000000" stroke-width="10" stroke-linecap="round" stroke-linejoin="round" stroke-miterlimit="10" stroke-dasharray="none" stroke-opacity="" data-original="#000000"></path><path d="M0 0c-2.844-9.777-11.128-30.599-31.738-39.84a1.344 1.344 0 0 1 0-2.464C-11.128-51.544-2.844-72.366 0-82.144c.375-1.29 2.197-1.29 2.572 0 2.845 9.778 11.129 30.6 31.739 39.84a1.344 1.344 0 0 1 0 2.464C13.701-30.599 5.417-9.777 2.572 0 2.197 1.291.375 1.291 0 0Z" style="stroke-width: 10; stroke-linecap: round; stroke-linejoin: round; stroke-miterlimit: 10; stroke-dasharray: none; stroke-opacity: 1;" transform="translate(183.583 451.713)" fill="none" stroke="#000000" stroke-width="10" stroke-linecap="round" stroke-linejoin="round" stroke-miterlimit="10" stroke-dasharray="none" stroke-opacity="" data-original="#000000"></path><path d="M0 0c-3.932-13.515-15.383-42.297-43.871-55.07-1.486-.666-1.486-2.74 0-3.406C-15.383-71.25-3.932-100.031 0-113.546c.519-1.784 3.037-1.784 3.556 0 3.931 13.515 15.382 42.296 43.871 55.07 1.486.666 1.486 2.74 0 3.406C18.938-42.297 7.487-13.515 3.556 0 3.037 1.784.519 1.784 0 0Z" style="stroke-width: 10; stroke-linecap: round; stroke-linejoin: round; stroke-miterlimit: 10; stroke-dasharray: none; stroke-opacity: 1;" transform="translate(84.6 425.375)" fill="none" stroke="#000000" stroke-width="10" stroke-linecap="round" stroke-linejoin="round" stroke-miterlimit="10" stroke-dasharray="none" stroke-opacity="" data-original="#000000"></path><path d="m0 0 47.098 47.098c5.521 5.521 5.521 14.473 0 19.995-5.522 5.521-14.473 5.521-19.995 0L-86.54-46.55c-5.521-5.521-5.521-14.473 0-19.995 5.522-5.521 14.474-5.521 19.995 0l41.206 41.206" style="stroke-width: 10; stroke-linecap: round; stroke-linejoin: round; stroke-miterlimit: 10; stroke-dasharray: none; stroke-opacity: 1;" transform="translate(195.103 165.765)" fill="none" stroke="#000000" stroke-width="10" stroke-linecap="round" stroke-linejoin="round" stroke-miterlimit="10" stroke-dasharray="none" stroke-opacity="" data-original="#000000"></path></g></g></svg>